<svg width="1920" height="1080" viewBox="0 0 1920 1080" fill="none" xmlns="http://www.w3.org/2000/svg">
  <rect width="1920" height="1080" fill="#003C3C"/>

  <g opacity="0.45" stroke="#1E5A55" stroke-width="3" fill="none">
    <path d="M365 200L400 220L365 240Z"/>
    <path d="M426 200L461 220L426 240Z"/>
    <path d="M487 200L522 220L487 240Z"/>
    <path d="M1398 200L1363 220L1398 240Z"/>
    <path d="M1459 200L1424 220L1459 240Z"/>
    <path d="M1520 200L1485 220L1520 240Z"/>
  </g>

  <text x="72" y="100" fill="#FFFFFF" font-family="Montserrat, Arial, sans-serif" font-size="47" font-weight="800">TATA<tspan font-weight="500"> POWER</tspan></text>
  <text x="1782" y="100" text-anchor="end" fill="#FFFFFF" font-family="Montserrat, Arial, sans-serif" font-size="47" font-weight="800">TATA</text>

  <g transform="translate(520,120)">
    <path d="M0 78Q0 20 56 20H850Q906 20 906 78Q906 136 850 136H56Q0 136 0 78Z" fill="#1E97A2" stroke="#9CCF4A" stroke-width="8"/>
    <path d="M0 136Q12 74 56 20H30Q-8 54 -8 136Z" fill="#A7D04F"/>
    <path d="M906 136Q880 124 874 78Q868 32 910 20Q928 18 946 0Q941 56 950 90Q958 122 924 136Z" fill="#9ED24E"/>
    <text x="450" y="98" text-anchor="middle" fill="#EFF9FF" font-family="Montserrat, Arial, sans-serif" font-size="66" font-weight="800">Step Into the Future of Energy</text>
  </g>

  <g>
    <path d="M0 940C190 1000 350 890 530 940C740 1000 920 900 1120 955C1290 1000 1530 890 1920 960V1080H0V940Z" fill="#DDE8D9"/>
    <rect y="1030" width="1920" height="50" fill="#2F5628"/>
  </g>

  <g fill="#6A9550" opacity="0.9">
    <rect x="20" y="980" width="160" height="36" rx="4"/>
    <rect x="280" y="948" width="120" height="68" rx="4"/>
    <rect x="450" y="970" width="200" height="46" rx="4"/>
    <rect x="940" y="960" width="100" height="56" rx="4"/>
    <rect x="1140" y="950" width="70" height="66" rx="4"/>
  </g>

  <g>
    <path d="M1610 960C1660 915 1716 920 1770 965C1828 1008 1880 985 1915 950C1870 1020 1810 1037 1758 1005C1698 970 1662 973 1610 960Z" fill="#8BC255"/>
    <path d="M1658 956C1704 924 1753 930 1798 967C1847 1004 1886 994 1913 967C1880 1021 1832 1041 1792 1016C1735 980 1702 979 1658 956Z" fill="#4A7C37"/>
  </g>

  <text x="1570" y="1020" text-anchor="end" fill="#2A4D3B" font-family="Montserrat, Arial, sans-serif" font-size="41" font-weight="700">#SustainableIsAttainable</text>
</svg>
